<?xml version="1.0" encoding="utf-8"?><!-- Uploaded to: SVG Repo, www.svgrepo.com, Generator: SVG Repo Mixer Tools -->
<svg width="80px" height="80px" viewBox="0 0 24 24" fill="none" xmlns="http://www.w3.org/2000/svg">
<path fill-rule="evenodd" clip-rule="evenodd" d="M12.826 6.07601C11.4937 6.38186 10.5 7.57488 10.5 9V9.75H16.5V9C16.5 7.6504 15.6088 6.50894 14.3828 6.132C14.6183 5.61186 15.1419 5.25 15.75 5.25C16.5784 5.25 17.25 5.92157 17.25 6.75L17.25 12.75H4.5V14.25H5.25L5.25 18C5.25 19.2426 6.25736 20.25 7.5 20.25L16.5 20.25C17.7426 20.25 18.75 19.2426 18.75 18V14.25H19.5V12.75H18.75L18.75 6.75C18.75 5.09315 17.4069 3.75 15.75 3.75C14.3249 3.75 13.1319 4.7437 12.826 6.07601ZM6.75 14.25H17.25V18C17.25 18.4142 16.9142 18.75 16.5 18.75L7.5 18.75C7.08579 18.75 6.75 18.4142 6.75 18L6.75 14.25ZM13.5 7.5C14.0552 7.5 14.54 7.80165 14.7993 8.25H12.2007C12.46 7.80165 12.9448 7.5 13.5 7.5Z" fill="#080341"/>
</svg>